<?xml version="1.0" encoding="utf-8"?>
<!-- Generator: Adobe Illustrator 23.1.0, SVG Export Plug-In . SVG Version: 6.00 Build 0)  -->
<svg version="1.1" xmlns="http://www.w3.org/2000/svg" xmlns:xlink="http://www.w3.org/1999/xlink" x="0px" y="0px"
	 viewBox="0 0 595.3 595.3" enable-background="new 0 0 595.3 595.3" xml:space="preserve">
<g id="Capa_1">
</g>
<g id="Capa_2">
	
		<circle fill="#61ADA6" stroke="#F7B855" stroke-width="0.7007" stroke-linecap="round" stroke-linejoin="round" stroke-miterlimit="10" cx="452.1" cy="46.1" r="19.1"/>
	
		<path fill="none" stroke="#FFFFFF" stroke-width="1.9802" stroke-linecap="round" stroke-linejoin="round" stroke-miterlimit="10" d="
		M434.6,41c0,0,4.1-0.2,6.4,5.1c0,0,3.3,12.1,15,8.5c0,0,10.8-4.1,3-17.4c0,0-2.1-2.9-1.2-5.1l1.1-3.1"/>
	<path fill="#365954" stroke="#F7B855" stroke-width="3.0015" stroke-miterlimit="10" d="M191.5,188.7c-17.5-12.1-24.8-6.9-24.8-6.9
		c-1.5,0.8-2.9,1.8-4.1,3.1c-6.2,6.4-6,16.7,0.5,22.9l55.2,52.9c3.9,3.7,9.6,5.7,15.4,4.8l2.5-0.4l54.8-8.4L306.4,370l-40,167.2
		c-2.1,11.1,4.1,22.4,15.1,26.4c12.2,4.4,25.7-1.8,30.1-14l56.7-138.7l22.1,46.8l-15.9,80.2c-2.5,13,7.9,23.7,20.3,25.6
		c13.2,2.1,24.7-6.9,27.7-20.1l22.8-87.7c0.6-3.8,0.3-7.8-1.2-11.6l-0.8-2.2l-22.4-60l-20.2-147.2l60-26.9l1.6-0.7
		c4.9-2.2,9-6.4,10.9-11.8l21.3-59.8c3.4-9.8-1.1-20.8-10.7-25.1c-10.1-4.6-22.1-0.1-26.7,10l-21.8,48.2c0,0-53.4,21.7-62.8,24.7
		c-18.2,5.9-39.9,4.1-73.3,12.9L236,221.9L191.5,188.7z"/>
	<path fill="#365954" stroke="#F7B855" stroke-width="3.0015" stroke-miterlimit="10" d="M283.8,127.8c-3.1,26.2,15.7,49.9,41.9,53
		c26.2,3.1,49.9-15.7,53-41.9c3.1-26.2-15.7-49.9-41.9-53C310.5,82.9,286.8,101.7,283.8,127.8z"/>
	<path fill="#365954" stroke="#F7B855" stroke-width="1.5007" stroke-miterlimit="10" d="M127.4,33.2c0,0-63.3,12.1-31.2,68.9
		c0,0,13.5,20.3,35.9,36.4c0,0,19.9,18.1,20.7,19.1c0,0,3.5,2.1,7.3,20.9l5,23c0,0-0.6,10,2.4,10.4c0,0,4.7,0.6,8.1-0.3
		c3.4-0.9,7.1-3.8,7.1-3.8c2.4-1.8-3.2-10.2-3.2-10.2l-7.3-22.4c-5.8-18.7-4.2-21.7-4.2-21.7c0.3-1.9,8.2-26.9,8.2-26.9
		c11.5-25.1,12.8-49.5,12.8-49.5C188.2,11.9,127.4,33.2,127.4,33.2z M107.4,77.6c1.1-2.1,4.1-2.9,6.2-1.7c2.1,1.2,2.9,4.1,1.7,6.2
		c-1.2,2.1-4.2,2.8-6.2,1.5C107.1,82.4,106.3,79.6,107.4,77.6z M118.7,95.4c-1.3,2.1-3.9,2.8-6,1.7c-2.1-1.1-2.9-4.1-1.7-6.2
		c1.2-2.1,4-2.8,6.1-1.6C119.4,90.6,120.1,93.2,118.7,95.4z M143.8,53.4c1.2-2.1,4.1-2.8,6.2-1.5c2.2,1.3,2.8,4,1.5,6.1
		c-1.2,2-4,2.7-6,1.6C143.5,58.4,142.6,55.4,143.8,53.4z M147.5,66.8c1.2-2,4-2.8,6-1.7c2.1,1.1,2.9,4.1,1.7,6.2
		c-1.2,2.1-3.8,2.8-6,1.6C147,71.6,146.2,68.9,147.5,66.8z M154.6,93.3c1.2-2.2,3.9-3,6-1.8c2.1,1.2,2.9,4.1,1.7,6.1
		c-1.2,2-3.9,2.8-6,1.7C154.2,98.2,153.4,95.5,154.6,93.3z M151.1,80c1.2-2,4-2.7,6-1.6c2,1.1,2.8,4.2,1.6,6.2
		c-1.3,2.1-4,2.8-6.2,1.5C150.5,84.8,149.8,82.1,151.1,80z M130.6,57c1.2-2,4-2.8,6.1-1.6c2.2,1.2,2.9,4,1.6,6.2
		c-1.3,2.1-3.8,2.8-5.9,1.5C130,61.8,129.3,59.1,130.6,57z M141.9,74.8c-1.3,2.2-3.9,2.9-6.1,1.7c-2.1-1.2-2.9-4.1-1.7-6.2
		c1.2-1.9,4.1-2.7,6.1-1.7C142.3,69.7,143.1,72.7,141.9,74.8z M137.7,83.7c1.2-2.1,4.1-2.9,6.2-1.7c2.1,1.2,2.8,4.1,1.6,6.2
		c-1.2,2.1-3.8,2.8-6,1.6C137.3,88.6,136.5,85.9,137.7,83.7z M149.1,101.6c-1.2,2-4.2,2.7-6.2,1.5c-2.1-1.3-2.7-4.1-1.4-6.2
		c1.3-2,4-2.7,6-1.5C149.6,96.6,150.3,99.5,149.1,101.6z M117.2,60.6c1.1-2,4.3-2.8,6.2-1.7c1.9,1.1,2.7,4.1,1.6,6.1
		c-1.2,2.2-4,2.9-6.1,1.7C116.8,65.5,116,62.7,117.2,60.6z M120.8,74.1c1.2-2.1,4.1-3,6.1-1.8c2.1,1.2,2.9,4,1.6,6.2
		c-1.3,2.2-3.9,2.9-6.1,1.6C120.3,78.8,119.6,76.1,120.8,74.1z M127.9,100.7c1.2-2.2,3.9-2.9,6.1-1.7c2.2,1.2,2.9,3.9,1.7,6.1
		c-1.2,2.1-4.2,2.8-6.2,1.6C127.6,105.5,126.8,102.7,127.9,100.7z M124.4,87.2c1.2-2,4-2.7,6-1.6c2.2,1.2,3,3.9,1.7,6.1
		c-1.2,2.2-3.9,3-6.1,1.7C124,92.2,123.2,89.2,124.4,87.2z M166,125.6c-2.6,6.1-5.7,12.1-6.3,18.7c-0.1,0.7-1.9,1.3-1.9,1.3
		s-2.3,0.7-2.8-0.2c-4.3-7.1-12.2-11-18.6-16.3c-1.3-1.1-2.7-2.1-4.1-3.6c15.7,2.2,25-0.3,37.5-9.7C169,119.4,167.3,122.5,166,125.6
		z M172.2,81c-1.2,2.1-4,2.8-6.2,1.5c-2.3-1.3-2.9-3.8-1.5-6.1c1.2-2.1,3.9-2.8,6-1.6C172.5,76,173.4,79,172.2,81z M168.5,67.7
		c-1.2,2-4,2.8-6,1.7c-2.1-1.1-2.9-4-1.7-6.2c1.2-2.2,4-2.9,6.1-1.7C169,62.8,169.8,65.6,168.5,67.7z"/>
	
		<path fill="#61ADA6" stroke="#F7B855" stroke-width="0.7007" stroke-linecap="round" stroke-linejoin="round" stroke-miterlimit="10" d="
		M168,153.5c0,0-1.6,2.9,4.2,21.7l7.3,22.4c0,0,5.5,8.4,3.2,10.2c0,0-3.7,2.9-7.1,3.8s-8.1,0.3-8.1,0.3c-3-0.3-2.4-10.4-2.4-10.4
		l-5-23c-3.8-18.7-7.3-20.9-7.3-20.9s3.3,0.8,8-0.5C160.8,157.1,166.8,155.4,168,153.5z"/>
	<g>
		<path fill="#42827A" d="M172.7,200.9c1.4-0.2,2.7-0.5,3.9-1.1c0.6-0.3,1.1-0.7,1.7-1c0.5-0.4,1-0.8,1.6-1.3c0,0,0,0,0.1,0
			c0,0,0,0,0,0c-0.2,0.7-0.7,1.3-1.2,1.8c-0.6,0.5-1.2,0.8-1.9,1C175.5,200.8,174,201,172.7,200.9
			C172.6,200.9,172.6,200.9,172.7,200.9C172.6,200.9,172.6,200.9,172.7,200.9z"/>
	</g>
</g>
</svg>
